<?xml version="1.0" encoding="UTF-8"?>
<svg xmlns="http://www.w3.org/2000/svg" fill="none" viewBox="0 0 318 132" width="2400" height="996.22641509434"><path fill="#000" d="M50.13 70.75c0 1.75.27 3.34.81 4.78.54 1.44 1.29 2.67 2.25 3.69s2.09 1.8 3.41 2.34c1.31.54 2.74.81 4.28.81 1.5 0 2.91-.28 4.22-.84 1.31-.56 2.46-1.35 3.44-2.38.98-1.02 1.74-2.24 2.28-3.66.54-1.42.81-3 .81-4.75v-27h6.56V87.5h-6.5v-4.06A15.056 15.056 0 0 1 66.53 87c-1.98.83-4.12 1.25-6.41 1.25-2.33 0-4.51-.41-6.53-1.22-2.02-.81-3.77-1.97-5.25-3.47-1.48-1.5-2.65-3.3-3.5-5.41-.85-2.1-1.28-4.45-1.28-7.03V43.75h6.56v27h.01zm32.94-27h6.31v15.94c1.46-1.46 3.15-2.61 5.06-3.47 1.92-.85 4-1.28 6.25-1.28 2.33 0 4.52.44 6.56 1.31 2.04.88 3.81 2.06 5.31 3.56 1.5 1.5 2.69 3.27 3.56 5.31.88 2.04 1.31 4.21 1.31 6.5s-.44 4.45-1.31 6.47c-.88 2.02-2.06 3.78-3.56 5.28-1.5 1.5-3.27 2.69-5.31 3.56-2.04.88-4.23 1.31-6.56 1.31-2.25 0-4.34-.43-6.28-1.28-1.94-.85-3.64-2.01-5.09-3.47v4h-6.25V43.75zm6.18 27.87c0 1.54.28 2.98.84 4.31.56 1.33 1.34 2.5 2.34 3.5 1 1 2.17 1.79 3.5 2.38 1.33.58 2.77.88 4.31.88 1.5 0 2.92-.29 4.25-.88 1.33-.58 2.49-1.38 3.47-2.38s1.76-2.17 2.34-3.5c.58-1.33.88-2.77.88-4.31 0-1.54-.29-2.99-.88-4.34-.58-1.35-1.37-2.53-2.34-3.53-.98-1-2.14-1.78-3.47-2.34-1.33-.56-2.75-.84-4.25-.84s-2.92.28-4.25.84c-1.33.56-2.5 1.34-3.5 2.34-1 1-1.79 2.18-2.38 3.53-.57 1.35-.86 2.8-.86 4.34zm30.69-.06c0-2.25.42-4.38 1.25-6.38.83-2 1.98-3.76 3.44-5.28 1.46-1.52 3.19-2.72 5.19-3.59 2-.88 4.17-1.31 6.5-1.31 2.29 0 4.42.42 6.38 1.25 1.96.83 3.65 1.99 5.06 3.47 1.42 1.48 2.52 3.23 3.31 5.25s1.19 4.22 1.19 6.59v2.06h-25.94c.21 1.29.62 2.49 1.25 3.59.62 1.1 1.41 2.06 2.34 2.88.93.82 2 1.45 3.19 1.91 1.19.46 2.45.69 3.78.69 3.79 0 6.85-1.56 9.19-4.69l4.56 3.38a16.972 16.972 0 0 1-5.88 5c-2.33 1.21-4.96 1.81-7.88 1.81-2.38 0-4.59-.42-6.66-1.25-2.07-.83-3.85-2-5.37-3.5s-2.72-3.26-3.59-5.28c-.87-2.03-1.31-4.22-1.31-6.6zm16.25-11.06c-2.38 0-4.45.74-6.22 2.22-1.77 1.48-2.95 3.45-3.53 5.91h19.44c-.54-2.46-1.7-4.43-3.47-5.91-1.77-1.48-3.85-2.22-6.22-2.22zm33 .75c-2.08 0-3.79.73-5.12 2.19s-2 3.44-2 5.94V87.5h-6.31V55.62H162v3.94a8.873 8.873 0 0 1 3.09-3.06c1.27-.75 2.78-1.12 4.53-1.12h2.19v5.88h-2.62v-.01zM186.69 43.75h31.06v2.69h-14.06V87.5h-3V46.44h-14v-2.69zM213.88 79.06c0-2.5.85-4.52 2.56-6.06s4.12-2.42 7.25-2.62l10.62-.69v-3.75c0-2.25-.67-4.02-2-5.31s-3.25-1.94-5.75-1.94c-1.67 0-3.19.29-4.56.88-1.38.58-2.67 1.5-3.88 2.75l-1.88-2.06c1.54-1.46 3.16-2.51 4.84-3.16 1.69-.65 3.59-.97 5.72-.97 3.21 0 5.75.84 7.62 2.53s2.81 3.99 2.81 6.91V83c0 1.21.69 1.81 2.06 1.81h1.5v2.69H239c-1.42 0-2.55-.36-3.41-1.09-.85-.73-1.28-1.74-1.28-3.03v-.81c-.96 1.67-2.31 3-4.06 4-1.75 1-3.75 1.5-6 1.5-1.5 0-2.88-.22-4.12-.66-1.24-.44-2.34-1.04-3.28-1.81a8.02 8.02 0 0 1-2.19-2.81c-.52-1.11-.78-2.35-.78-3.73zm2.87.06c0 1.83.72 3.34 2.16 4.53 1.44 1.19 3.28 1.78 5.53 1.78 1.38 0 2.67-.25 3.88-.75s2.26-1.18 3.16-2.03c.9-.85 1.59-1.85 2.09-3 .5-1.15.75-2.38.75-3.72v-3.69l-10.19.69c-2.38.17-4.2.78-5.47 1.84-1.27 1.07-1.91 2.52-1.91 4.35zM253.13 71.44l-11-14.88h3.38l9.31 12.62 9.25-12.62h3.25l-10.88 14.88 11.75 16.06h-3.38l-10.13-13.81-10.12 13.81h-3.25l11.82-16.06zM272.19 50.06c-.58 0-1.11-.23-1.56-.69-.46-.46-.69-1-.69-1.62 0-.62.23-1.16.69-1.59.46-.44.98-.66 1.56-.66.58 0 1.1.22 1.56.66.46.44.69.97.69 1.59 0 .62-.23 1.17-.69 1.62-.46.46-.98.69-1.56.69zm1.37 37.44h-2.88V56.56h2.88V87.5z"/></svg>
